<?xml version="1.0" standalone="no"?>
<!DOCTYPE svg PUBLIC "-//W3C//DTD SVG 20010904//EN"
 "http://www.w3.org/TR/2001/REC-SVG-20010904/DTD/svg10.dtd">
<svg version="1.0" xmlns="http://www.w3.org/2000/svg"
 width="512.000000pt" height="512.000000pt" viewBox="0 0 512.000000 512.000000"
 preserveAspectRatio="xMidYMid meet">
<metadata>
Created by potrace 1.11, written by Peter Selinger 2001-2013
</metadata>
<g transform="translate(0.000000,512.000000) scale(0.100000,-0.100000)"
fill="#000000" stroke="none">
<path d="M1939 4603 c-76 -19 -165 -65 -225 -115 -51 -43 -194 -217 -194 -236
0 -6 -4 -12 -8 -14 -5 -1 -29 -37 -54 -78 -121 -201 -210 -422 -274 -680 -16
-63 -29 -116 -30 -118 -1 -2 -75 -16 -206 -38 -30 -5 -125 -26 -228 -50 -105
-25 -284 -82 -371 -119 -344 -145 -440 -343 -255 -526 48 -47 86 -73 181 -119
148 -72 384 -148 545 -176 14 -3 33 -7 42 -10 67 -20 482 -84 648 -100 36 -3
79 -7 95 -9 17 -2 68 -6 115 -10 47 -4 99 -8 115 -10 226 -26 1063 -26 1435 0
185 12 229 16 260 20 19 2 64 7 100 10 36 4 76 8 90 10 14 2 45 6 70 10 92 12
196 26 220 31 14 3 41 7 60 9 19 3 46 8 60 11 14 3 36 8 50 10 337 58 666 177
810 293 68 56 75 64 105 126 56 116 6 234 -140 335 -103 71 -365 172 -555 215
-8 2 -37 9 -65 15 -88 20 -106 24 -253 49 -57 10 -107 22 -111 27 -5 5 -22 63
-39 129 -54 215 -72 248 -135 250 -13 0 -27 20 -47 65 -27 65 -27 66 -9 89 11
13 19 33 19 46 0 39 -172 347 -223 400 -7 7 -30 34 -51 61 -70 87 -175 158
-286 193 -55 18 -190 24 -255 12 -131 -24 -262 -100 -336 -194 -23 -29 -45
-53 -49 -55 -5 -2 -14 7 -20 20 -7 13 -39 49 -72 81 -136 130 -346 186 -529
140z"/>
<path d="M1178 1630 c-43 -13 -84 -47 -104 -87 -28 -58 -28 -364 0 -499 2 -12
17 -52 32 -90 82 -209 267 -373 489 -435 64 -18 107 -22 215 -22 161 -1 195 4
279 37 114 46 211 134 266 244 49 98 57 144 59 332 l2 175 40 14 c52 18 170
17 213 -2 l35 -15 2 -175 c2 -146 5 -187 22 -239 62 -190 212 -326 400 -362
104 -20 301 -13 398 14 262 71 456 271 522 535 18 75 24 415 8 461 -16 47 -47
83 -86 102 -32 15 -89 17 -591 17 l-555 0 -37 -25 c-50 -34 -78 -86 -86 -162
-1 -4 -13 -3 -28 3 -34 13 -133 16 -204 6 l-56 -8 -1 35 c-2 44 -35 96 -81
127 -34 24 -35 24 -350 26 -340 1 -351 0 -371 -51 -8 -21 -15 -23 -70 -23 -53
1 -63 4 -70 22 -16 43 -37 49 -154 51 -61 1 -123 -2 -138 -6z"/>
</g>
</svg>
